<svg xmlns="http://www.w3.org/2000/svg" xmlns:xlink="http://www.w3.org/1999/xlink" width="180" zoomAndPan="magnify" viewBox="0 0 135 135.000003" height="180" preserveAspectRatio="xMidYMid meet" version="1.0"><defs><g/><clipPath id="3a36e0f43d"><path d="M 0.335938 0.0390625 L 36.785156 0.0390625 L 36.785156 4 L 0.335938 4 Z M 0.335938 0.0390625 " clip-rule="nonzero"/></clipPath><clipPath id="c88ccbf971"><rect x="0" width="37" y="0" height="5"/></clipPath><clipPath id="42807ce9a7"><path d="M 0.496094 0 L 134.503906 0 L 134.503906 134 L 0.496094 134 Z M 0.496094 0 " clip-rule="nonzero"/></clipPath></defs><g transform="matrix(1, 0, 0, 1, 49, 65)"><g clip-path="url(#c88ccbf971)"><g clip-path="url(#3a36e0f43d)"><g fill="#000000" fill-opacity="1"><g transform="translate(0.5091, 2.889062)"><g><path d="M 0.921875 0 L 0.65625 0 L 0.65625 -1.796875 L 0.03125 -1.796875 L 0.03125 -2.015625 L 1.546875 -2.015625 L 1.546875 -1.796875 L 0.921875 -1.796875 Z M 0.921875 0 "/></g></g><g transform="translate(2.084797, 2.889062)"><g><path d="M 1.265625 0 L 1.265625 -0.96875 C 1.265625 -1.09375 1.238281 -1.179688 1.1875 -1.234375 C 1.132812 -1.296875 1.050781 -1.328125 0.9375 -1.328125 C 0.78125 -1.328125 0.664062 -1.285156 0.59375 -1.203125 C 0.519531 -1.117188 0.484375 -0.976562 0.484375 -0.78125 L 0.484375 0 L 0.234375 0 L 0.234375 -2.15625 L 0.484375 -2.15625 L 0.484375 -1.515625 C 0.484375 -1.429688 0.476562 -1.363281 0.46875 -1.3125 L 0.484375 -1.3125 C 0.535156 -1.382812 0.601562 -1.441406 0.6875 -1.484375 C 0.769531 -1.523438 0.863281 -1.546875 0.96875 -1.546875 C 1.144531 -1.546875 1.28125 -1.5 1.375 -1.40625 C 1.46875 -1.320312 1.515625 -1.179688 1.515625 -0.984375 L 1.515625 0 Z M 1.265625 0 "/></g></g><g transform="translate(3.836187, 2.889062)"><g><path d="M 0.890625 0.03125 C 0.660156 0.03125 0.476562 -0.0351562 0.34375 -0.171875 C 0.21875 -0.316406 0.15625 -0.507812 0.15625 -0.75 C 0.15625 -0.988281 0.210938 -1.179688 0.328125 -1.328125 C 0.453125 -1.472656 0.617188 -1.546875 0.828125 -1.546875 C 1.015625 -1.546875 1.164062 -1.484375 1.28125 -1.359375 C 1.394531 -1.234375 1.453125 -1.066406 1.453125 -0.859375 L 1.453125 -0.703125 L 0.40625 -0.703125 C 0.414062 -0.535156 0.460938 -0.40625 0.546875 -0.3125 C 0.628906 -0.226562 0.742188 -0.1875 0.890625 -0.1875 C 0.972656 -0.1875 1.050781 -0.191406 1.125 -0.203125 C 1.195312 -0.210938 1.28125 -0.238281 1.375 -0.28125 L 1.375 -0.078125 C 1.289062 -0.0351562 1.210938 -0.0078125 1.140625 0 C 1.066406 0.0195312 0.984375 0.03125 0.890625 0.03125 Z M 0.828125 -1.34375 C 0.703125 -1.34375 0.601562 -1.300781 0.53125 -1.21875 C 0.46875 -1.144531 0.429688 -1.039062 0.421875 -0.90625 L 1.1875 -0.90625 C 1.1875 -1.050781 1.15625 -1.160156 1.09375 -1.234375 C 1.03125 -1.304688 0.941406 -1.34375 0.828125 -1.34375 Z M 1.25 -1.71875 L 1.109375 -1.71875 C 1.003906 -1.78125 0.90625 -1.851562 0.8125 -1.9375 C 0.707031 -1.84375 0.613281 -1.769531 0.53125 -1.71875 L 0.390625 -1.71875 L 0.390625 -1.75 C 0.429688 -1.800781 0.476562 -1.859375 0.53125 -1.921875 C 0.59375 -1.984375 0.644531 -2.046875 0.6875 -2.109375 L 0.953125 -2.109375 C 1.015625 -2.015625 1.113281 -1.894531 1.25 -1.75 Z M 1.140625 -2.015625 C 1.203125 -2.097656 1.257812 -2.191406 1.3125 -2.296875 L 1.5625 -2.296875 L 1.5625 -2.265625 C 1.488281 -2.171875 1.394531 -2.078125 1.28125 -1.984375 L 1.140625 -1.984375 Z M 1.140625 -2.015625 "/></g></g><g transform="translate(5.434019, 2.889062)"><g/></g><g transform="translate(6.16999, 2.889062)"><g><path d="M 0.8125 -0.171875 C 0.96875 -0.171875 1.078125 -0.210938 1.140625 -0.296875 C 1.210938 -0.378906 1.25 -0.515625 1.25 -0.703125 L 1.25 -0.75 C 1.25 -0.957031 1.210938 -1.101562 1.140625 -1.1875 C 1.078125 -1.28125 0.96875 -1.328125 0.8125 -1.328125 C 0.6875 -1.328125 0.585938 -1.273438 0.515625 -1.171875 C 0.441406 -1.078125 0.40625 -0.9375 0.40625 -0.75 C 0.40625 -0.5625 0.4375 -0.414062 0.5 -0.3125 C 0.570312 -0.21875 0.675781 -0.171875 0.8125 -0.171875 Z M 1.25 -0.015625 L 1.265625 -0.203125 L 1.25 -0.203125 C 1.144531 -0.046875 0.988281 0.03125 0.78125 0.03125 C 0.582031 0.03125 0.425781 -0.0351562 0.3125 -0.171875 C 0.207031 -0.304688 0.15625 -0.5 0.15625 -0.75 C 0.15625 -1 0.207031 -1.191406 0.3125 -1.328125 C 0.425781 -1.472656 0.582031 -1.546875 0.78125 -1.546875 C 0.976562 -1.546875 1.132812 -1.46875 1.25 -1.3125 L 1.265625 -1.3125 L 1.296875 -1.515625 L 1.5 -1.515625 L 1.5 0.03125 C 1.5 0.238281 1.441406 0.394531 1.328125 0.5 C 1.222656 0.613281 1.050781 0.671875 0.8125 0.671875 C 0.59375 0.671875 0.414062 0.640625 0.28125 0.578125 L 0.28125 0.359375 C 0.425781 0.429688 0.609375 0.46875 0.828125 0.46875 C 0.960938 0.46875 1.066406 0.429688 1.140625 0.359375 C 1.210938 0.285156 1.25 0.179688 1.25 0.046875 Z M 1.25 -0.015625 "/></g></g><g transform="translate(7.913079, 2.889062)"><g><path d="M 0.484375 0 L 0.234375 0 L 0.234375 -1.515625 L 0.484375 -1.515625 Z M 0.21875 -1.921875 C 0.21875 -1.984375 0.234375 -2.023438 0.265625 -2.046875 C 0.296875 -2.066406 0.332031 -2.078125 0.375 -2.078125 C 0.40625 -2.078125 0.4375 -2.066406 0.46875 -2.046875 C 0.5 -2.023438 0.515625 -1.984375 0.515625 -1.921875 C 0.515625 -1.867188 0.5 -1.828125 0.46875 -1.796875 C 0.4375 -1.773438 0.40625 -1.765625 0.375 -1.765625 C 0.332031 -1.765625 0.296875 -1.773438 0.265625 -1.796875 C 0.234375 -1.828125 0.21875 -1.867188 0.21875 -1.921875 Z M 0.21875 -1.921875 "/></g></g><g transform="translate(8.643516, 2.889062)"><g><path d="M 1.5625 -0.765625 C 1.5625 -0.515625 1.5 -0.316406 1.375 -0.171875 C 1.25 -0.0351562 1.070312 0.03125 0.84375 0.03125 C 0.707031 0.03125 0.585938 0 0.484375 -0.0625 C 0.378906 -0.132812 0.296875 -0.226562 0.234375 -0.34375 C 0.179688 -0.457031 0.15625 -0.597656 0.15625 -0.765625 C 0.15625 -1.003906 0.21875 -1.191406 0.34375 -1.328125 C 0.46875 -1.472656 0.640625 -1.546875 0.859375 -1.546875 C 0.960938 -1.546875 1.054688 -1.523438 1.140625 -1.484375 C 1.222656 -1.453125 1.296875 -1.40625 1.359375 -1.34375 C 1.398438 -1.363281 1.429688 -1.390625 1.453125 -1.421875 C 1.484375 -1.453125 1.503906 -1.488281 1.515625 -1.53125 C 1.535156 -1.582031 1.546875 -1.65625 1.546875 -1.75 L 1.8125 -1.75 L 1.828125 -1.71875 C 1.796875 -1.570312 1.75 -1.457031 1.6875 -1.375 C 1.632812 -1.289062 1.5625 -1.234375 1.46875 -1.203125 C 1.53125 -1.066406 1.5625 -0.921875 1.5625 -0.765625 Z M 0.40625 -0.765625 C 0.40625 -0.566406 0.441406 -0.414062 0.515625 -0.3125 C 0.585938 -0.21875 0.703125 -0.171875 0.859375 -0.171875 C 1.015625 -0.171875 1.125 -0.21875 1.1875 -0.3125 C 1.257812 -0.414062 1.296875 -0.566406 1.296875 -0.765625 C 1.296875 -0.953125 1.257812 -1.09375 1.1875 -1.1875 C 1.125 -1.28125 1.015625 -1.328125 0.859375 -1.328125 C 0.703125 -1.328125 0.585938 -1.28125 0.515625 -1.1875 C 0.441406 -1.09375 0.40625 -0.953125 0.40625 -0.765625 Z M 0.6875 -1.75 C 0.726562 -1.789062 0.773438 -1.851562 0.828125 -1.9375 C 0.878906 -2.019531 0.921875 -2.097656 0.953125 -2.171875 L 1.265625 -2.171875 L 1.265625 -2.140625 C 1.222656 -2.078125 1.15625 -2 1.0625 -1.90625 C 0.976562 -1.820312 0.910156 -1.757812 0.859375 -1.71875 L 0.6875 -1.71875 Z M 0.6875 -1.75 "/></g></g><g transform="translate(10.389372, 2.889062)"><g><path d="M 0.484375 0 L 0.234375 0 L 0.234375 -1.515625 L 0.484375 -1.515625 Z M 0.21875 -1.921875 C 0.21875 -1.984375 0.234375 -2.023438 0.265625 -2.046875 C 0.296875 -2.066406 0.332031 -2.078125 0.375 -2.078125 C 0.40625 -2.078125 0.4375 -2.066406 0.46875 -2.046875 C 0.5 -2.023438 0.515625 -1.984375 0.515625 -1.921875 C 0.515625 -1.867188 0.5 -1.828125 0.46875 -1.796875 C 0.4375 -1.773438 0.40625 -1.765625 0.375 -1.765625 C 0.332031 -1.765625 0.296875 -1.773438 0.265625 -1.796875 C 0.234375 -1.828125 0.21875 -1.867188 0.21875 -1.921875 Z M 0.21875 -1.921875 "/></g></g><g transform="translate(11.11981, 2.889062)"><g/></g><g transform="translate(11.855781, 2.889062)"><g><path d="M 0.84375 0.03125 C 0.625 0.03125 0.453125 -0.0351562 0.328125 -0.171875 C 0.210938 -0.304688 0.15625 -0.5 0.15625 -0.75 C 0.15625 -1 0.21875 -1.191406 0.34375 -1.328125 C 0.46875 -1.472656 0.640625 -1.546875 0.859375 -1.546875 C 0.929688 -1.546875 1.003906 -1.535156 1.078125 -1.515625 C 1.148438 -1.503906 1.210938 -1.488281 1.265625 -1.46875 L 1.1875 -1.25 C 1.0625 -1.300781 0.953125 -1.328125 0.859375 -1.328125 C 0.703125 -1.328125 0.585938 -1.273438 0.515625 -1.171875 C 0.441406 -1.078125 0.40625 -0.9375 0.40625 -0.75 C 0.40625 -0.570312 0.441406 -0.429688 0.515625 -0.328125 C 0.585938 -0.234375 0.695312 -0.1875 0.84375 -0.1875 C 0.976562 -0.1875 1.109375 -0.21875 1.234375 -0.28125 L 1.234375 -0.046875 C 1.128906 0.00390625 1 0.03125 0.84375 0.03125 Z M 0.84375 0.03125 "/></g></g><g transform="translate(13.215667, 2.889062)"><g><path d="M 1.171875 0 L 1.125 -0.21875 L 1.109375 -0.21875 C 1.035156 -0.125 0.960938 -0.0546875 0.890625 -0.015625 C 0.816406 0.015625 0.722656 0.03125 0.609375 0.03125 C 0.460938 0.03125 0.34375 -0.00390625 0.25 -0.078125 C 0.164062 -0.160156 0.125 -0.273438 0.125 -0.421875 C 0.125 -0.722656 0.367188 -0.882812 0.859375 -0.90625 L 1.109375 -0.921875 L 1.109375 -1 C 1.109375 -1.113281 1.082031 -1.195312 1.03125 -1.25 C 0.988281 -1.3125 0.910156 -1.34375 0.796875 -1.34375 C 0.722656 -1.34375 0.648438 -1.328125 0.578125 -1.296875 C 0.503906 -1.273438 0.4375 -1.25 0.375 -1.21875 L 0.296875 -1.40625 C 0.367188 -1.445312 0.453125 -1.476562 0.546875 -1.5 C 0.640625 -1.53125 0.726562 -1.546875 0.8125 -1.546875 C 1 -1.546875 1.132812 -1.503906 1.21875 -1.421875 C 1.3125 -1.335938 1.359375 -1.207031 1.359375 -1.03125 L 1.359375 0 Z M 0.671875 -0.171875 C 0.804688 -0.171875 0.910156 -0.207031 0.984375 -0.28125 C 1.066406 -0.351562 1.109375 -0.460938 1.109375 -0.609375 L 1.109375 -0.734375 L 0.890625 -0.734375 C 0.710938 -0.722656 0.582031 -0.691406 0.5 -0.640625 C 0.425781 -0.597656 0.390625 -0.523438 0.390625 -0.421875 C 0.390625 -0.335938 0.410156 -0.273438 0.453125 -0.234375 C 0.503906 -0.191406 0.578125 -0.171875 0.671875 -0.171875 Z M 0.3125 -1.75 C 0.425781 -1.875 0.503906 -1.960938 0.546875 -2.015625 C 0.597656 -2.078125 0.632812 -2.128906 0.65625 -2.171875 L 0.921875 -2.171875 C 0.960938 -2.078125 1.078125 -1.9375 1.265625 -1.75 L 1.265625 -1.71875 L 1.09375 -1.71875 C 1.007812 -1.757812 0.90625 -1.84375 0.78125 -1.96875 C 0.664062 -1.851562 0.566406 -1.769531 0.484375 -1.71875 L 0.3125 -1.71875 Z M 0.3125 -1.75 "/></g></g><g transform="translate(14.805199, 2.889062)"><g><path d="M 0 -1.515625 L 0.265625 -1.515625 L 0.59375 -0.65625 C 0.664062 -0.46875 0.707031 -0.328125 0.71875 -0.234375 L 0.734375 -0.234375 C 0.742188 -0.273438 0.757812 -0.34375 0.78125 -0.4375 C 0.8125 -0.53125 0.835938 -0.601562 0.859375 -0.65625 L 1.171875 -1.515625 L 1.4375 -1.515625 L 0.78125 0.203125 C 0.71875 0.378906 0.644531 0.5 0.5625 0.5625 C 0.476562 0.632812 0.367188 0.671875 0.234375 0.671875 C 0.171875 0.671875 0.101562 0.664062 0.03125 0.65625 L 0.03125 0.453125 C 0.0703125 0.460938 0.128906 0.46875 0.203125 0.46875 C 0.273438 0.46875 0.335938 0.445312 0.390625 0.40625 C 0.453125 0.363281 0.5 0.296875 0.53125 0.203125 L 0.609375 0 Z M 0 -1.515625 "/></g></g><g transform="translate(16.249473, 2.889062)"><g/></g><g transform="translate(16.985444, 2.889062)"><g><path d="M 0.59375 -0.78125 L 0.078125 -1.515625 L 0.359375 -1.515625 L 0.75 -0.9375 L 1.140625 -1.515625 L 1.421875 -1.515625 L 0.890625 -0.78125 L 1.453125 0 L 1.15625 0 L 0.75 -0.609375 L 0.328125 0 L 0.046875 0 Z M 0.59375 -0.78125 "/></g></g><g transform="translate(18.483671, 2.889062)"><g><path d="M 1.171875 0 L 1.125 -0.21875 L 1.109375 -0.21875 C 1.035156 -0.125 0.960938 -0.0546875 0.890625 -0.015625 C 0.816406 0.015625 0.722656 0.03125 0.609375 0.03125 C 0.460938 0.03125 0.34375 -0.00390625 0.25 -0.078125 C 0.164062 -0.160156 0.125 -0.273438 0.125 -0.421875 C 0.125 -0.722656 0.367188 -0.882812 0.859375 -0.90625 L 1.109375 -0.921875 L 1.109375 -1 C 1.109375 -1.113281 1.082031 -1.195312 1.03125 -1.25 C 0.988281 -1.3125 0.910156 -1.34375 0.796875 -1.34375 C 0.722656 -1.34375 0.648438 -1.328125 0.578125 -1.296875 C 0.503906 -1.273438 0.4375 -1.25 0.375 -1.21875 L 0.296875 -1.40625 C 0.367188 -1.445312 0.453125 -1.476562 0.546875 -1.5 C 0.640625 -1.53125 0.726562 -1.546875 0.8125 -1.546875 C 1 -1.546875 1.132812 -1.503906 1.21875 -1.421875 C 1.3125 -1.335938 1.359375 -1.207031 1.359375 -1.03125 L 1.359375 0 Z M 0.671875 -0.171875 C 0.804688 -0.171875 0.910156 -0.207031 0.984375 -0.28125 C 1.066406 -0.351562 1.109375 -0.460938 1.109375 -0.609375 L 1.109375 -0.734375 L 0.890625 -0.734375 C 0.710938 -0.722656 0.582031 -0.691406 0.5 -0.640625 C 0.425781 -0.597656 0.390625 -0.523438 0.390625 -0.421875 C 0.390625 -0.335938 0.410156 -0.273438 0.453125 -0.234375 C 0.503906 -0.191406 0.578125 -0.171875 0.671875 -0.171875 Z M 0.671875 -0.171875 "/></g></g><g transform="translate(20.073202, 2.889062)"><g><path d="M 1.265625 0 L 1.265625 -0.96875 C 1.265625 -1.09375 1.238281 -1.179688 1.1875 -1.234375 C 1.132812 -1.296875 1.050781 -1.328125 0.9375 -1.328125 C 0.78125 -1.328125 0.664062 -1.285156 0.59375 -1.203125 C 0.519531 -1.117188 0.484375 -0.976562 0.484375 -0.78125 L 0.484375 0 L 0.234375 0 L 0.234375 -1.515625 L 0.4375 -1.515625 L 0.484375 -1.3125 C 0.535156 -1.382812 0.601562 -1.441406 0.6875 -1.484375 C 0.769531 -1.523438 0.863281 -1.546875 0.96875 -1.546875 C 1.15625 -1.546875 1.289062 -1.5 1.375 -1.40625 C 1.46875 -1.3125 1.515625 -1.171875 1.515625 -0.984375 L 1.515625 0 Z M 1.265625 0 "/></g></g><g transform="translate(21.824592, 2.889062)"><g><path d="M 1.265625 0 L 1.265625 -0.96875 C 1.265625 -1.09375 1.238281 -1.179688 1.1875 -1.234375 C 1.132812 -1.296875 1.050781 -1.328125 0.9375 -1.328125 C 0.78125 -1.328125 0.664062 -1.285156 0.59375 -1.203125 C 0.519531 -1.117188 0.484375 -0.976562 0.484375 -0.78125 L 0.484375 0 L 0.234375 0 L 0.234375 -2.15625 L 0.484375 -2.15625 L 0.484375 -1.515625 C 0.484375 -1.429688 0.476562 -1.363281 0.46875 -1.3125 L 0.484375 -1.3125 C 0.535156 -1.382812 0.601562 -1.441406 0.6875 -1.484375 C 0.769531 -1.523438 0.863281 -1.546875 0.96875 -1.546875 C 1.144531 -1.546875 1.28125 -1.5 1.375 -1.40625 C 1.46875 -1.320312 1.515625 -1.179688 1.515625 -0.984375 L 1.515625 0 Z M 1.265625 0 "/></g></g><g transform="translate(23.575981, 2.889062)"><g/></g><g transform="translate(24.311952, 2.889062)"><g><path d="M 0 -2.015625 L 0.265625 -2.015625 L 0.71875 -0.71875 C 0.78125 -0.5625 0.820312 -0.414062 0.84375 -0.28125 C 0.863281 -0.394531 0.90625 -0.546875 0.96875 -0.734375 L 1.421875 -2.015625 L 1.703125 -2.015625 L 0.96875 0 L 0.71875 0 Z M 0 -2.015625 "/></g></g><g transform="translate(26.012156, 2.889062)"><g><path d="M 0.484375 0 L 0.234375 0 L 0.234375 -1.515625 L 0.484375 -1.515625 Z M 0.21875 -1.921875 C 0.21875 -1.984375 0.234375 -2.023438 0.265625 -2.046875 C 0.296875 -2.066406 0.332031 -2.078125 0.375 -2.078125 C 0.40625 -2.078125 0.4375 -2.066406 0.46875 -2.046875 C 0.5 -2.023438 0.515625 -1.984375 0.515625 -1.921875 C 0.515625 -1.867188 0.5 -1.828125 0.46875 -1.796875 C 0.4375 -1.773438 0.40625 -1.765625 0.375 -1.765625 C 0.332031 -1.765625 0.296875 -1.773438 0.265625 -1.796875 C 0.234375 -1.828125 0.21875 -1.867188 0.21875 -1.921875 Z M 0.21875 -1.921875 "/></g></g><g transform="translate(26.742594, 2.889062)"><g><path d="M 0.890625 0.03125 C 0.660156 0.03125 0.476562 -0.0351562 0.34375 -0.171875 C 0.21875 -0.316406 0.15625 -0.507812 0.15625 -0.75 C 0.15625 -0.988281 0.210938 -1.179688 0.328125 -1.328125 C 0.453125 -1.472656 0.617188 -1.546875 0.828125 -1.546875 C 1.015625 -1.546875 1.164062 -1.484375 1.28125 -1.359375 C 1.394531 -1.234375 1.453125 -1.066406 1.453125 -0.859375 L 1.453125 -0.703125 L 0.40625 -0.703125 C 0.414062 -0.535156 0.460938 -0.40625 0.546875 -0.3125 C 0.628906 -0.226562 0.742188 -0.1875 0.890625 -0.1875 C 0.972656 -0.1875 1.050781 -0.191406 1.125 -0.203125 C 1.195312 -0.210938 1.28125 -0.238281 1.375 -0.28125 L 1.375 -0.078125 C 1.289062 -0.0351562 1.210938 -0.0078125 1.140625 0 C 1.066406 0.0195312 0.984375 0.03125 0.890625 0.03125 Z M 0.828125 -1.34375 C 0.703125 -1.34375 0.601562 -1.300781 0.53125 -1.21875 C 0.46875 -1.144531 0.429688 -1.039062 0.421875 -0.90625 L 1.1875 -0.90625 C 1.1875 -1.050781 1.15625 -1.160156 1.09375 -1.234375 C 1.03125 -1.304688 0.941406 -1.34375 0.828125 -1.34375 Z M 0.65625 0.34375 C 0.65625 0.28125 0.671875 0.238281 0.703125 0.21875 C 0.734375 0.195312 0.769531 0.1875 0.8125 0.1875 C 0.851562 0.1875 0.882812 0.195312 0.90625 0.21875 C 0.9375 0.238281 0.953125 0.28125 0.953125 0.34375 C 0.953125 0.382812 0.9375 0.421875 0.90625 0.453125 C 0.882812 0.484375 0.851562 0.5 0.8125 0.5 C 0.769531 0.5 0.734375 0.484375 0.703125 0.453125 C 0.671875 0.429688 0.65625 0.394531 0.65625 0.34375 Z M 0.34375 -1.75 C 0.457031 -1.875 0.535156 -1.960938 0.578125 -2.015625 C 0.628906 -2.078125 0.664062 -2.128906 0.6875 -2.171875 L 0.953125 -2.171875 C 0.992188 -2.078125 1.109375 -1.9375 1.296875 -1.75 L 1.296875 -1.71875 L 1.125 -1.71875 C 1.039062 -1.757812 0.9375 -1.84375 0.8125 -1.96875 C 0.695312 -1.851562 0.597656 -1.769531 0.515625 -1.71875 L 0.34375 -1.71875 Z M 0.34375 -1.75 "/></g></g><g transform="translate(28.340425, 2.889062)"><g><path d="M 0.75 -0.171875 C 0.78125 -0.171875 0.816406 -0.171875 0.859375 -0.171875 C 0.898438 -0.179688 0.929688 -0.191406 0.953125 -0.203125 L 0.953125 -0.015625 C 0.929688 -0.00390625 0.894531 0.00390625 0.84375 0.015625 C 0.800781 0.0234375 0.753906 0.03125 0.703125 0.03125 C 0.410156 0.03125 0.265625 -0.125 0.265625 -0.4375 L 0.265625 -1.328125 L 0.046875 -1.328125 L 0.046875 -1.4375 L 0.265625 -1.546875 L 0.359375 -1.859375 L 0.515625 -1.859375 L 0.515625 -1.515625 L 0.953125 -1.515625 L 0.953125 -1.328125 L 0.515625 -1.328125 L 0.515625 -0.453125 C 0.515625 -0.359375 0.535156 -0.285156 0.578125 -0.234375 C 0.617188 -0.191406 0.675781 -0.171875 0.75 -0.171875 Z M 0.75 -0.171875 "/></g></g><g transform="translate(29.362761, 2.889062)"><g/></g><g transform="translate(30.098732, 2.889062)"><g><path d="M 1.875 0 L 1.578125 0 L 0.5 -1.671875 L 0.484375 -1.671875 L 0.5 -1.5625 C 0.507812 -1.394531 0.515625 -1.25 0.515625 -1.125 L 0.515625 0 L 0.28125 0 L 0.28125 -2.015625 L 0.5625 -2.015625 L 0.625 -1.921875 L 1.296875 -0.890625 L 1.640625 -0.34375 L 1.65625 -0.34375 C 1.65625 -0.363281 1.648438 -0.441406 1.640625 -0.578125 C 1.640625 -0.710938 1.640625 -0.8125 1.640625 -0.875 L 1.640625 -2.015625 L 1.875 -2.015625 Z M 1.875 0 "/></g></g><g transform="translate(32.251309, 2.889062)"><g><path d="M 1.171875 0 L 1.125 -0.21875 L 1.109375 -0.21875 C 1.035156 -0.125 0.960938 -0.0546875 0.890625 -0.015625 C 0.816406 0.015625 0.722656 0.03125 0.609375 0.03125 C 0.460938 0.03125 0.34375 -0.00390625 0.25 -0.078125 C 0.164062 -0.160156 0.125 -0.273438 0.125 -0.421875 C 0.125 -0.722656 0.367188 -0.882812 0.859375 -0.90625 L 1.109375 -0.921875 L 1.109375 -1 C 1.109375 -1.113281 1.082031 -1.195312 1.03125 -1.25 C 0.988281 -1.3125 0.910156 -1.34375 0.796875 -1.34375 C 0.722656 -1.34375 0.648438 -1.328125 0.578125 -1.296875 C 0.503906 -1.273438 0.4375 -1.25 0.375 -1.21875 L 0.296875 -1.40625 C 0.367188 -1.445312 0.453125 -1.476562 0.546875 -1.5 C 0.640625 -1.53125 0.726562 -1.546875 0.8125 -1.546875 C 1 -1.546875 1.132812 -1.503906 1.21875 -1.421875 C 1.3125 -1.335938 1.359375 -1.207031 1.359375 -1.03125 L 1.359375 0 Z M 0.671875 -0.171875 C 0.804688 -0.171875 0.910156 -0.207031 0.984375 -0.28125 C 1.066406 -0.351562 1.109375 -0.460938 1.109375 -0.609375 L 1.109375 -0.734375 L 0.890625 -0.734375 C 0.710938 -0.722656 0.582031 -0.691406 0.5 -0.640625 C 0.425781 -0.597656 0.390625 -0.523438 0.390625 -0.421875 C 0.390625 -0.335938 0.410156 -0.273438 0.453125 -0.234375 C 0.503906 -0.191406 0.578125 -0.171875 0.671875 -0.171875 Z M 0.671875 -0.171875 "/></g></g><g transform="translate(33.840841, 2.889062)"><g><path d="M 2.171875 0 L 2.171875 -0.96875 C 2.171875 -1.207031 2.066406 -1.328125 1.859375 -1.328125 C 1.722656 -1.328125 1.617188 -1.285156 1.546875 -1.203125 C 1.484375 -1.128906 1.453125 -1.007812 1.453125 -0.84375 L 1.453125 0 L 1.203125 0 L 1.203125 -0.96875 C 1.203125 -1.09375 1.175781 -1.179688 1.125 -1.234375 C 1.070312 -1.296875 0.992188 -1.328125 0.890625 -1.328125 C 0.753906 -1.328125 0.648438 -1.285156 0.578125 -1.203125 C 0.515625 -1.117188 0.484375 -0.976562 0.484375 -0.78125 L 0.484375 0 L 0.234375 0 L 0.234375 -1.515625 L 0.4375 -1.515625 L 0.484375 -1.3125 C 0.535156 -1.382812 0.597656 -1.441406 0.671875 -1.484375 C 0.753906 -1.523438 0.84375 -1.546875 0.9375 -1.546875 C 1.175781 -1.546875 1.332031 -1.460938 1.40625 -1.296875 L 1.421875 -1.296875 C 1.460938 -1.367188 1.523438 -1.425781 1.609375 -1.46875 C 1.703125 -1.519531 1.800781 -1.546875 1.90625 -1.546875 C 2.070312 -1.546875 2.195312 -1.5 2.28125 -1.40625 C 2.375 -1.320312 2.421875 -1.179688 2.421875 -0.984375 L 2.421875 0 Z M 2.171875 0 "/></g></g></g></g></g></g><g clip-path="url(#42807ce9a7)"><path fill="#7ed957" d="M 134.441406 133.945312 C 60.464844 133.945312 0.496094 73.976562 0.496094 0 C 74.472656 0 134.441406 59.96875 134.441406 133.945312 Z M 134.441406 133.945312 " fill-opacity="1" fill-rule="nonzero"/><path fill="#00bf63" d="M 0.496094 133.945312 C 74.472656 133.945312 134.441406 73.976562 134.441406 0 C 60.464844 0 0.496094 59.96875 0.496094 133.945312 Z M 0.496094 133.945312 " fill-opacity="1" fill-rule="nonzero"/></g></svg>