<svg xmlns="http://www.w3.org/2000/svg" xmlns:xlink="http://www.w3.org/1999/xlink" width="200" zoomAndPan="magnify" viewBox="0 0 150 37.5" height="50" preserveAspectRatio="xMidYMid meet" version="1.0"><defs><g/><clipPath id="6796f20853"><path d="M 18.539062 0 L 20.945312 0 L 20.945312 1.886719 L 18.539062 1.886719 Z M 18.539062 0 " clip-rule="nonzero"/></clipPath><clipPath id="9680759b62"><path d="M 20.9375 0.511719 C 19.84375 2.277344 18.832031 1.941406 18.664062 1.605469 C 18.414062 1.183594 18.582031 0.175781 18.917969 -0.078125 C 19.253906 -0.332031 20.601562 0.00390625 20.601562 0.00390625 " clip-rule="nonzero"/></clipPath><clipPath id="e293ff3c0a"><path d="M 0.539062 0 L 2.945312 0 L 2.945312 1.886719 L 0.539062 1.886719 Z M 0.539062 0 " clip-rule="nonzero"/></clipPath><clipPath id="19625d097e"><path d="M 2.9375 0.511719 C 1.84375 2.277344 0.832031 1.941406 0.664062 1.605469 C 0.414062 1.183594 0.582031 0.175781 0.917969 -0.078125 C 1.253906 -0.332031 2.601562 0.00390625 2.601562 0.00390625 " clip-rule="nonzero"/></clipPath><clipPath id="5c5254dfc1"><rect x="0" width="3" y="0" height="2"/></clipPath><clipPath id="72bcccb0e1"><path d="M 93 13 L 149.011719 13 L 149.011719 36 L 93 36 Z M 93 13 " clip-rule="nonzero"/></clipPath><clipPath id="1d34f842b5"><rect x="0" width="57" y="0" height="23"/></clipPath><clipPath id="b27ef43743"><path d="M 54.332031 0 L 91.339844 0 L 91.339844 37 L 54.332031 37 Z M 54.332031 0 " clip-rule="nonzero"/></clipPath></defs><g clip-path="url(#6796f20853)"><g clip-path="url(#9680759b62)"><g transform="matrix(1, 0, 0, 1, 18, -0.000000000000001478)"><g clip-path="url(#5c5254dfc1)"><g clip-path="url(#e293ff3c0a)"><g clip-path="url(#19625d097e)"><rect x="-51" width="216" fill="#ffffff" height="54" y="-8.25" fill-opacity="1"/></g></g></g></g></g></g><g clip-path="url(#72bcccb0e1)"><g transform="matrix(1, 0, 0, 1, 93, 13)"><g clip-path="url(#1d34f842b5)"><g fill="#7ed957" fill-opacity="1"><g transform="translate(0.519433, 18.376521)"><g><path d="M 6.203125 -6.59375 L 6.203125 -5.921875 L 14.6875 -5.921875 L 14.6875 -6.59375 C 14.6875 -6.988281 14.65625 -7.351562 14.59375 -7.6875 C 14.53125 -8.019531 14.445312 -8.332031 14.34375 -8.625 L 12.84375 -12.171875 C 12.6875 -12.546875 12.519531 -12.859375 12.34375 -13.109375 C 12.164062 -13.367188 11.875 -13.5 11.46875 -13.5 L 9.34375 -13.5 C 8.90625 -13.5 8.597656 -13.367188 8.421875 -13.109375 C 8.242188 -12.859375 8.082031 -12.550781 7.9375 -12.1875 L 6.546875 -8.625 C 6.453125 -8.332031 6.367188 -8.019531 6.296875 -7.6875 C 6.234375 -7.351562 6.203125 -6.988281 6.203125 -6.59375 Z M 9.6875 -11.09375 C 9.738281 -11.226562 9.796875 -11.320312 9.859375 -11.375 C 9.929688 -11.4375 10.007812 -11.46875 10.09375 -11.46875 L 10.640625 -11.46875 C 10.734375 -11.46875 10.8125 -11.4375 10.875 -11.375 C 10.9375 -11.320312 11 -11.226562 11.0625 -11.09375 L 12.078125 -7.796875 L 8.65625 -7.796875 Z M 14.6875 -1.953125 L 14.6875 -5.703125 L 6.203125 -5.703125 L 6.203125 -1.953125 L 5.984375 -1.953125 L 5.984375 -6.59375 C 5.984375 -7 6.015625 -7.375 6.078125 -7.71875 C 6.148438 -8.0625 6.242188 -8.390625 6.359375 -8.703125 L 7.75 -12.28125 C 7.90625 -12.6875 8.082031 -13.023438 8.28125 -13.296875 C 8.488281 -13.578125 8.84375 -13.71875 9.34375 -13.71875 L 11.46875 -13.71875 C 11.945312 -13.71875 12.285156 -13.578125 12.484375 -13.296875 C 12.679688 -13.023438 12.863281 -12.675781 13.03125 -12.25 L 14.546875 -8.703125 C 14.660156 -8.390625 14.75 -8.0625 14.8125 -7.71875 C 14.875 -7.375 14.90625 -7 14.90625 -6.59375 L 14.90625 -1.953125 Z M 8.4375 -0.78125 L 8.4375 -3.828125 L 12.296875 -3.828125 L 12.296875 -0.78125 C 12.296875 -0.507812 12.363281 -0.3125 12.5 -0.1875 C 12.644531 -0.0625 12.859375 0 13.140625 0 L 16.4375 0 C 16.707031 0 16.90625 -0.0625 17.03125 -0.1875 C 17.15625 -0.3125 17.21875 -0.507812 17.21875 -0.78125 L 17.21875 -6.53125 C 17.21875 -6.96875 17.144531 -7.46875 17 -8.03125 C 16.863281 -8.59375 16.65625 -9.253906 16.375 -10.015625 L 14.46875 -14.953125 C 14.382812 -15.203125 14.25 -15.382812 14.0625 -15.5 C 13.882812 -15.613281 13.660156 -15.671875 13.390625 -15.671875 L 7.53125 -15.671875 C 7.238281 -15.671875 7 -15.613281 6.8125 -15.5 C 6.632812 -15.382812 6.503906 -15.203125 6.421875 -14.953125 L 4.53125 -10.015625 C 4.238281 -9.253906 4.019531 -8.59375 3.875 -8.03125 C 3.738281 -7.46875 3.671875 -6.96875 3.671875 -6.53125 L 3.671875 -0.78125 C 3.671875 -0.507812 3.734375 -0.3125 3.859375 -0.1875 C 3.984375 -0.0625 4.1875 0 4.46875 0 L 7.65625 0 C 7.9375 0 8.132812 -0.0625 8.25 -0.1875 C 8.375 -0.3125 8.4375 -0.507812 8.4375 -0.78125 Z M 5.53125 2.375 C 5.46875 2.425781 5.375 2.472656 5.25 2.515625 C 5.132812 2.566406 5.003906 2.59375 4.859375 2.59375 L 1.65625 2.59375 C 1.300781 2.59375 1.046875 2.507812 0.890625 2.34375 C 0.734375 2.1875 0.65625 1.9375 0.65625 1.59375 L 0.65625 -4.15625 C 0.65625 -4.601562 0.722656 -5.113281 0.859375 -5.6875 C 0.992188 -6.257812 1.21875 -6.941406 1.53125 -7.734375 L 3.390625 -12.640625 C 3.429688 -12.773438 3.484375 -12.890625 3.546875 -12.984375 C 3.617188 -13.078125 3.691406 -13.160156 3.765625 -13.234375 L 3.78125 -13.25 L 6.578125 -15.578125 C 6.691406 -15.679688 6.828125 -15.757812 6.984375 -15.8125 C 7.140625 -15.863281 7.320312 -15.890625 7.53125 -15.890625 L 13.390625 -15.890625 C 13.722656 -15.890625 13.992188 -15.816406 14.203125 -15.671875 C 14.410156 -15.535156 14.566406 -15.328125 14.671875 -15.046875 L 16.5625 -10.09375 C 16.863281 -9.3125 17.082031 -8.632812 17.21875 -8.0625 C 17.363281 -7.488281 17.4375 -6.976562 17.4375 -6.53125 L 17.4375 -0.78125 C 17.4375 -0.59375 17.410156 -0.429688 17.359375 -0.296875 C 17.304688 -0.171875 17.226562 -0.0664062 17.125 0.015625 L 14.296875 2.375 C 14.242188 2.425781 14.15625 2.472656 14.03125 2.515625 C 13.90625 2.566406 13.769531 2.59375 13.625 2.59375 L 10.34375 2.59375 C 9.976562 2.59375 9.707031 2.507812 9.53125 2.34375 C 9.351562 2.175781 9.265625 1.925781 9.265625 1.59375 L 9.265625 -1.234375 L 8.65625 -1.234375 L 8.65625 -0.78125 C 8.65625 -0.59375 8.628906 -0.429688 8.578125 -0.296875 C 8.535156 -0.171875 8.460938 -0.0664062 8.359375 0.015625 Z M 5.53125 2.375 "/></g></g></g><g fill="#7ed957" fill-opacity="1"><g transform="translate(18.576851, 18.376521)"><g><path d="M 6.875 -13.53125 L 14.890625 -4.53125 L 14.890625 -13.71875 L 15.109375 -13.71875 L 15.109375 -1.953125 L 14.890625 -1.953125 L 14.890625 -4.203125 L 6.65625 -13.421875 C 6.644531 -13.441406 6.628906 -13.457031 6.609375 -13.46875 C 6.585938 -13.488281 6.566406 -13.5 6.546875 -13.5 C 6.535156 -13.5 6.523438 -13.488281 6.515625 -13.46875 C 6.515625 -13.457031 6.515625 -13.441406 6.515625 -13.421875 L 6.515625 -1.953125 L 6.296875 -1.953125 L 6.296875 -13.46875 C 6.296875 -13.5625 6.320312 -13.628906 6.375 -13.671875 C 6.4375 -13.710938 6.492188 -13.734375 6.546875 -13.734375 C 6.609375 -13.734375 6.660156 -13.71875 6.703125 -13.6875 C 6.742188 -13.65625 6.800781 -13.601562 6.875 -13.53125 Z M 8.046875 0 C 8.328125 0 8.53125 -0.0625 8.65625 -0.1875 C 8.78125 -0.3125 8.84375 -0.507812 8.84375 -0.78125 L 8.84375 -7.96875 L 12.5625 -3.453125 L 12.5625 -0.78125 C 12.5625 -0.507812 12.617188 -0.3125 12.734375 -0.1875 C 12.859375 -0.0625 13.0625 0 13.34375 0 L 16.609375 0 C 16.878906 0 17.078125 -0.0625 17.203125 -0.1875 C 17.328125 -0.3125 17.390625 -0.507812 17.390625 -0.78125 L 17.390625 -14.890625 C 17.390625 -15.160156 17.328125 -15.359375 17.203125 -15.484375 C 17.078125 -15.609375 16.878906 -15.671875 16.609375 -15.671875 L 13.34375 -15.671875 C 13.0625 -15.671875 12.859375 -15.609375 12.734375 -15.484375 C 12.617188 -15.359375 12.5625 -15.160156 12.5625 -14.890625 L 12.5625 -10.25 L 8.34375 -15.078125 C 8.144531 -15.296875 7.945312 -15.445312 7.75 -15.53125 C 7.5625 -15.625 7.328125 -15.671875 7.046875 -15.671875 L 4.78125 -15.671875 C 4.507812 -15.671875 4.3125 -15.609375 4.1875 -15.484375 C 4.0625 -15.359375 4 -15.160156 4 -14.890625 L 4 -0.78125 C 4 -0.507812 4.0625 -0.3125 4.1875 -0.1875 C 4.3125 -0.0625 4.507812 0 4.78125 0 Z M 8.75 0.015625 L 5.921875 2.375 C 5.859375 2.425781 5.765625 2.472656 5.640625 2.515625 C 5.523438 2.566406 5.394531 2.59375 5.25 2.59375 L 1.984375 2.59375 C 1.628906 2.59375 1.375 2.507812 1.21875 2.34375 C 1.0625 2.1875 0.984375 1.9375 0.984375 1.59375 L 0.984375 -12.515625 C 0.984375 -12.703125 1.003906 -12.859375 1.046875 -12.984375 C 1.097656 -13.117188 1.175781 -13.234375 1.28125 -13.328125 L 4.09375 -15.6875 C 4.164062 -15.75 4.265625 -15.796875 4.390625 -15.828125 C 4.515625 -15.867188 4.644531 -15.890625 4.78125 -15.890625 L 7.046875 -15.890625 C 7.367188 -15.890625 7.640625 -15.835938 7.859375 -15.734375 C 8.078125 -15.628906 8.296875 -15.460938 8.515625 -15.234375 L 10.015625 -13.5 L 12.640625 -15.6875 C 12.710938 -15.75 12.8125 -15.796875 12.9375 -15.828125 C 13.0625 -15.867188 13.195312 -15.890625 13.34375 -15.890625 L 16.609375 -15.890625 C 16.953125 -15.890625 17.203125 -15.804688 17.359375 -15.640625 C 17.523438 -15.484375 17.609375 -15.234375 17.609375 -14.890625 L 17.609375 -0.78125 C 17.609375 -0.59375 17.582031 -0.429688 17.53125 -0.296875 C 17.476562 -0.171875 17.398438 -0.0664062 17.296875 0.015625 L 14.46875 2.375 C 14.414062 2.425781 14.328125 2.472656 14.203125 2.515625 C 14.078125 2.566406 13.941406 2.59375 13.796875 2.59375 L 10.53125 2.59375 C 10.1875 2.59375 9.929688 2.507812 9.765625 2.34375 C 9.609375 2.1875 9.53125 1.9375 9.53125 1.59375 L 9.53125 -1 L 9.046875 -1.59375 L 9.046875 -0.78125 C 9.046875 -0.59375 9.019531 -0.429688 8.96875 -0.296875 C 8.925781 -0.171875 8.851562 -0.0664062 8.75 0.015625 Z M 8.75 0.015625 "/></g></g></g><g fill="#7ed957" fill-opacity="1"><g transform="translate(37.134654, 18.376521)"><g><path d="M 6.359375 -1.953125 L 6.359375 -13.71875 L 6.578125 -13.71875 L 6.578125 -7.9375 L 14.9375 -7.9375 L 14.9375 -13.71875 L 15.15625 -13.71875 L 15.15625 -1.953125 L 14.9375 -1.953125 L 14.9375 -7.734375 L 6.578125 -7.734375 L 6.578125 -1.953125 Z M 8.15625 0 C 8.4375 0 8.640625 -0.0625 8.765625 -0.1875 C 8.890625 -0.3125 8.953125 -0.507812 8.953125 -0.78125 L 8.953125 -5.609375 L 12.578125 -5.609375 L 12.578125 -0.78125 C 12.578125 -0.507812 12.640625 -0.3125 12.765625 -0.1875 C 12.890625 -0.0625 13.085938 0 13.359375 0 L 16.734375 0 C 17.015625 0 17.210938 -0.0625 17.328125 -0.1875 C 17.453125 -0.3125 17.515625 -0.507812 17.515625 -0.78125 L 17.515625 -14.890625 C 17.515625 -15.160156 17.453125 -15.359375 17.328125 -15.484375 C 17.210938 -15.609375 17.015625 -15.671875 16.734375 -15.671875 L 13.359375 -15.671875 C 13.085938 -15.671875 12.890625 -15.609375 12.765625 -15.484375 C 12.640625 -15.359375 12.578125 -15.160156 12.578125 -14.890625 L 12.578125 -10.171875 L 8.953125 -10.171875 L 8.953125 -14.890625 C 8.953125 -15.160156 8.890625 -15.359375 8.765625 -15.484375 C 8.640625 -15.609375 8.4375 -15.671875 8.15625 -15.671875 L 4.78125 -15.671875 C 4.507812 -15.671875 4.3125 -15.609375 4.1875 -15.484375 C 4.0625 -15.359375 4 -15.160156 4 -14.890625 L 4 -0.78125 C 4 -0.507812 4.0625 -0.3125 4.1875 -0.1875 C 4.3125 -0.0625 4.507812 0 4.78125 0 Z M 8.859375 0.015625 L 6.03125 2.375 C 5.96875 2.425781 5.875 2.472656 5.75 2.515625 C 5.632812 2.566406 5.503906 2.59375 5.359375 2.59375 L 1.984375 2.59375 C 1.628906 2.59375 1.375 2.507812 1.21875 2.34375 C 1.0625 2.1875 0.984375 1.9375 0.984375 1.59375 L 0.984375 -12.515625 C 0.984375 -12.703125 1.003906 -12.859375 1.046875 -12.984375 C 1.097656 -13.117188 1.175781 -13.234375 1.28125 -13.328125 L 4.09375 -15.6875 C 4.164062 -15.75 4.265625 -15.796875 4.390625 -15.828125 C 4.515625 -15.867188 4.644531 -15.890625 4.78125 -15.890625 L 8.15625 -15.890625 C 8.507812 -15.890625 8.765625 -15.804688 8.921875 -15.640625 C 9.078125 -15.484375 9.15625 -15.234375 9.15625 -14.890625 L 9.15625 -10.375 L 9.5625 -10.375 L 9.5625 -12.515625 C 9.5625 -12.703125 9.582031 -12.859375 9.625 -12.984375 C 9.675781 -13.117188 9.753906 -13.234375 9.859375 -13.328125 L 12.671875 -15.6875 C 12.742188 -15.75 12.835938 -15.796875 12.953125 -15.828125 C 13.078125 -15.867188 13.210938 -15.890625 13.359375 -15.890625 L 16.734375 -15.890625 C 17.085938 -15.890625 17.34375 -15.804688 17.5 -15.640625 C 17.65625 -15.484375 17.734375 -15.234375 17.734375 -14.890625 L 17.734375 -0.78125 C 17.734375 -0.59375 17.707031 -0.429688 17.65625 -0.296875 C 17.613281 -0.171875 17.539062 -0.0664062 17.4375 0.015625 L 14.609375 2.375 C 14.546875 2.425781 14.453125 2.472656 14.328125 2.515625 C 14.203125 2.566406 14.070312 2.59375 13.9375 2.59375 L 10.5625 2.59375 C 10.207031 2.59375 9.953125 2.507812 9.796875 2.34375 C 9.640625 2.1875 9.5625 1.9375 9.5625 1.59375 L 9.5625 -3.03125 L 9.15625 -3.03125 L 9.15625 -0.78125 C 9.15625 -0.59375 9.128906 -0.429688 9.078125 -0.296875 C 9.035156 -0.171875 8.960938 -0.0664062 8.859375 0.015625 Z M 8.859375 0.015625 "/></g></g></g></g></g></g><g clip-path="url(#b27ef43743)"><path fill="#7ed957" d="M 91.136719 36.804688 C 70.8125 36.804688 54.332031 20.328125 54.332031 0 C 74.660156 0 91.136719 16.476562 91.136719 36.804688 Z M 91.136719 36.804688 " fill-opacity="1" fill-rule="nonzero"/><path fill="#00bf63" d="M 54.332031 36.804688 C 74.660156 36.804688 91.136719 20.328125 91.136719 0 C 70.8125 0 54.332031 16.476562 54.332031 36.804688 Z M 54.332031 36.804688 " fill-opacity="1" fill-rule="nonzero"/></g><g fill="#00bf63" fill-opacity="1"><g transform="translate(0.986842, 31.311057)"><g><path d="M 11.640625 2.59375 L 6.328125 2.59375 C 4.421875 2.59375 3.007812 2.097656 2.09375 1.109375 C 1.1875 0.117188 0.734375 -1.15625 0.734375 -2.71875 L 0.734375 -8.84375 C 0.734375 -9.644531 0.847656 -10.335938 1.078125 -10.921875 C 1.316406 -11.515625 1.660156 -12.007812 2.109375 -12.40625 L 4.953125 -14.78125 C 5.398438 -15.15625 5.972656 -15.4375 6.671875 -15.625 C 7.367188 -15.8125 8.191406 -15.90625 9.140625 -15.90625 L 14.453125 -15.90625 C 14.796875 -15.90625 15.046875 -15.828125 15.203125 -15.671875 C 15.367188 -15.515625 15.453125 -15.257812 15.453125 -14.90625 L 15.453125 -12.265625 C 15.453125 -12.078125 15.425781 -11.914062 15.375 -11.78125 C 15.320312 -11.65625 15.25 -11.550781 15.15625 -11.46875 L 12.3125 -9.109375 C 12.257812 -9.054688 12.171875 -9.003906 12.046875 -8.953125 C 11.921875 -8.910156 11.785156 -8.890625 11.640625 -8.890625 L 8.953125 -8.890625 L 8.953125 -5.203125 C 8.953125 -4.898438 9.046875 -4.6875 9.234375 -4.5625 C 9.429688 -4.4375 9.707031 -4.375 10.0625 -4.375 L 14.453125 -4.375 C 14.796875 -4.375 15.046875 -4.296875 15.203125 -4.140625 C 15.367188 -3.984375 15.453125 -3.726562 15.453125 -3.375 L 15.453125 -0.78125 C 15.453125 -0.59375 15.425781 -0.429688 15.375 -0.296875 C 15.320312 -0.171875 15.25 -0.0664062 15.15625 0.015625 L 12.3125 2.375 C 12.257812 2.4375 12.171875 2.488281 12.046875 2.53125 C 11.921875 2.570312 11.785156 2.59375 11.640625 2.59375 Z M 14.453125 0 C 14.722656 0 14.921875 -0.0625 15.046875 -0.1875 C 15.171875 -0.3125 15.234375 -0.507812 15.234375 -0.78125 L 15.234375 -3.375 C 15.234375 -3.65625 15.171875 -3.851562 15.046875 -3.96875 C 14.921875 -4.09375 14.722656 -4.15625 14.453125 -4.15625 L 10.0625 -4.15625 C 9.613281 -4.15625 9.28125 -4.238281 9.0625 -4.40625 C 8.84375 -4.582031 8.734375 -4.847656 8.734375 -5.203125 L 8.734375 -10.390625 C 8.734375 -10.753906 8.84375 -11.023438 9.0625 -11.203125 C 9.28125 -11.390625 9.613281 -11.484375 10.0625 -11.484375 L 14.453125 -11.484375 C 14.722656 -11.484375 14.921875 -11.546875 15.046875 -11.671875 C 15.171875 -11.796875 15.234375 -11.992188 15.234375 -12.265625 L 15.234375 -14.90625 C 15.234375 -15.1875 15.171875 -15.382812 15.046875 -15.5 C 14.921875 -15.625 14.722656 -15.6875 14.453125 -15.6875 L 9.140625 -15.6875 C 7.316406 -15.6875 5.960938 -15.320312 5.078125 -14.59375 C 4.203125 -13.863281 3.765625 -12.738281 3.765625 -11.21875 L 3.765625 -4.453125 C 3.765625 -2.941406 4.203125 -1.820312 5.078125 -1.09375 C 5.960938 -0.363281 7.316406 0 9.140625 0 Z M 13.25 -2.1875 L 13.25 -1.96875 L 9.609375 -1.96875 C 8.203125 -1.96875 7.269531 -2.179688 6.8125 -2.609375 C 6.351562 -3.046875 6.125 -3.769531 6.125 -4.78125 L 6.125 -10.875 C 6.125 -11.90625 6.351562 -12.640625 6.8125 -13.078125 C 7.28125 -13.515625 8.210938 -13.734375 9.609375 -13.734375 L 13.25 -13.734375 L 13.25 -13.515625 L 9.609375 -13.515625 C 8.328125 -13.515625 7.460938 -13.3125 7.015625 -12.90625 C 6.566406 -12.507812 6.34375 -11.832031 6.34375 -10.875 L 6.34375 -4.78125 C 6.34375 -3.832031 6.5625 -3.160156 7 -2.765625 C 7.4375 -2.378906 8.304688 -2.1875 9.609375 -2.1875 Z M 13.25 -2.1875 "/></g></g></g><g fill="#00bf63" fill-opacity="1"><g transform="translate(16.856608, 31.311057)"><g><path d="M 13.03125 -18.53125 L 11.140625 -19.140625 C 11.035156 -19.171875 10.925781 -19.195312 10.8125 -19.21875 C 10.707031 -19.25 10.582031 -19.265625 10.4375 -19.265625 C 10.289062 -19.265625 10.160156 -19.25 10.046875 -19.21875 C 9.941406 -19.195312 9.84375 -19.171875 9.75 -19.140625 L 7.84375 -18.53125 L 7.84375 -18.765625 L 9.65625 -19.359375 C 9.789062 -19.390625 9.914062 -19.414062 10.03125 -19.4375 C 10.144531 -19.46875 10.28125 -19.484375 10.4375 -19.484375 C 10.601562 -19.484375 10.742188 -19.46875 10.859375 -19.4375 C 10.972656 -19.414062 11.09375 -19.390625 11.21875 -19.359375 L 13.03125 -18.765625 Z M 9.765625 -17.375 C 10.015625 -17.425781 10.238281 -17.453125 10.4375 -17.453125 C 10.644531 -17.453125 10.867188 -17.425781 11.109375 -17.375 L 14.109375 -16.5 C 14.484375 -16.382812 14.726562 -16.367188 14.84375 -16.453125 C 14.957031 -16.546875 15.015625 -16.785156 15.015625 -17.171875 L 15.015625 -18.9375 C 15.015625 -19.332031 14.953125 -19.585938 14.828125 -19.703125 C 14.703125 -19.816406 14.460938 -19.945312 14.109375 -20.09375 L 11.109375 -21.1875 C 11.015625 -21.226562 10.90625 -21.253906 10.78125 -21.265625 C 10.664062 -21.285156 10.546875 -21.296875 10.421875 -21.296875 C 10.285156 -21.285156 10.140625 -21.265625 9.984375 -21.234375 C 9.835938 -21.203125 9.695312 -21.15625 9.5625 -21.09375 L 6.78125 -20.09375 C 6.425781 -19.945312 6.1875 -19.816406 6.0625 -19.703125 C 5.945312 -19.585938 5.890625 -19.332031 5.890625 -18.9375 L 5.890625 -17.171875 C 5.890625 -16.785156 5.945312 -16.546875 6.0625 -16.453125 C 6.175781 -16.367188 6.414062 -16.382812 6.78125 -16.5 Z M 6.21875 -6.609375 L 6.21875 -5.921875 L 14.71875 -5.921875 L 14.71875 -6.609375 C 14.71875 -6.992188 14.679688 -7.351562 14.609375 -7.6875 C 14.546875 -8.03125 14.460938 -8.34375 14.359375 -8.625 L 12.859375 -12.1875 C 12.703125 -12.5625 12.535156 -12.875 12.359375 -13.125 C 12.179688 -13.382812 11.890625 -13.515625 11.484375 -13.515625 L 9.34375 -13.515625 C 8.914062 -13.515625 8.613281 -13.382812 8.4375 -13.125 C 8.257812 -12.875 8.097656 -12.566406 7.953125 -12.203125 L 6.5625 -8.625 C 6.457031 -8.34375 6.375 -8.03125 6.3125 -7.6875 C 6.25 -7.351562 6.21875 -6.992188 6.21875 -6.609375 Z M 9.703125 -11.109375 C 9.753906 -11.242188 9.8125 -11.335938 9.875 -11.390625 C 9.945312 -11.453125 10.023438 -11.484375 10.109375 -11.484375 L 10.65625 -11.484375 C 10.75 -11.484375 10.828125 -11.453125 10.890625 -11.390625 C 10.953125 -11.335938 11.015625 -11.242188 11.078125 -11.109375 L 12.09375 -7.796875 L 8.671875 -7.796875 Z M 14.71875 -1.96875 L 14.71875 -5.703125 L 6.21875 -5.703125 L 6.21875 -1.96875 L 6 -1.96875 L 6 -6.609375 C 6 -7.015625 6.03125 -7.382812 6.09375 -7.71875 C 6.15625 -8.0625 6.242188 -8.394531 6.359375 -8.71875 L 7.765625 -12.296875 C 7.921875 -12.703125 8.097656 -13.039062 8.296875 -13.3125 C 8.503906 -13.59375 8.851562 -13.734375 9.34375 -13.734375 L 11.484375 -13.734375 C 11.960938 -13.734375 12.300781 -13.59375 12.5 -13.3125 C 12.695312 -13.039062 12.882812 -12.691406 13.0625 -12.265625 L 14.5625 -8.71875 C 14.675781 -8.394531 14.765625 -8.0625 14.828125 -7.71875 C 14.898438 -7.382812 14.9375 -7.015625 14.9375 -6.609375 L 14.9375 -1.96875 Z M 8.453125 -0.78125 L 8.453125 -3.84375 L 12.3125 -3.84375 L 12.3125 -0.78125 C 12.3125 -0.507812 12.378906 -0.3125 12.515625 -0.1875 C 12.660156 -0.0625 12.878906 0 13.171875 0 L 16.453125 0 C 16.734375 0 16.929688 -0.0625 17.046875 -0.1875 C 17.171875 -0.3125 17.234375 -0.507812 17.234375 -0.78125 L 17.234375 -6.546875 C 17.234375 -6.972656 17.164062 -7.46875 17.03125 -8.03125 C 16.894531 -8.601562 16.679688 -9.269531 16.390625 -10.03125 L 14.5 -14.96875 C 14.40625 -15.21875 14.265625 -15.398438 14.078125 -15.515625 C 13.898438 -15.628906 13.675781 -15.6875 13.40625 -15.6875 L 7.546875 -15.6875 C 7.253906 -15.6875 7.015625 -15.628906 6.828125 -15.515625 C 6.648438 -15.398438 6.519531 -15.21875 6.4375 -14.96875 L 4.53125 -10.03125 C 4.238281 -9.269531 4.023438 -8.601562 3.890625 -8.03125 C 3.753906 -7.46875 3.6875 -6.972656 3.6875 -6.546875 L 3.6875 -0.78125 C 3.6875 -0.507812 3.742188 -0.3125 3.859375 -0.1875 C 3.984375 -0.0625 4.1875 0 4.46875 0 L 7.671875 0 C 7.953125 0 8.148438 -0.0625 8.265625 -0.1875 C 8.390625 -0.3125 8.453125 -0.507812 8.453125 -0.78125 Z M 5.53125 2.375 C 5.476562 2.4375 5.390625 2.488281 5.265625 2.53125 C 5.140625 2.570312 5.003906 2.59375 4.859375 2.59375 L 1.65625 2.59375 C 1.3125 2.59375 1.054688 2.507812 0.890625 2.34375 C 0.734375 2.1875 0.65625 1.9375 0.65625 1.59375 L 0.65625 -4.15625 C 0.65625 -4.613281 0.722656 -5.128906 0.859375 -5.703125 C 0.992188 -6.273438 1.21875 -6.953125 1.53125 -7.734375 L 3.40625 -12.65625 C 3.445312 -12.789062 3.5 -12.90625 3.5625 -13 C 3.625 -13.09375 3.691406 -13.175781 3.765625 -13.25 L 3.796875 -13.28125 L 4.84375 -14.140625 L 4.03125 -13.90625 C 3.550781 -13.757812 3.234375 -13.738281 3.078125 -13.84375 C 2.929688 -13.957031 2.859375 -14.273438 2.859375 -14.796875 L 2.859375 -16.5625 C 2.859375 -16.84375 2.882812 -17.054688 2.9375 -17.203125 C 2.988281 -17.347656 3.0625 -17.46875 3.15625 -17.5625 L 6.015625 -19.9375 L 6 -19.921875 C 6.070312 -19.992188 6.164062 -20.054688 6.28125 -20.109375 C 6.40625 -20.171875 6.550781 -20.234375 6.71875 -20.296875 L 9.484375 -21.296875 C 9.628906 -21.347656 9.785156 -21.390625 9.953125 -21.421875 C 10.117188 -21.460938 10.273438 -21.492188 10.421875 -21.515625 C 10.566406 -21.515625 10.703125 -21.503906 10.828125 -21.484375 C 10.960938 -21.472656 11.082031 -21.4375 11.1875 -21.375 L 14.1875 -20.296875 C 14.625 -20.128906 14.90625 -19.972656 15.03125 -19.828125 C 15.164062 -19.691406 15.234375 -19.394531 15.234375 -18.9375 L 15.234375 -17.171875 C 15.234375 -16.941406 15.210938 -16.753906 15.171875 -16.609375 C 15.128906 -16.460938 15.078125 -16.359375 15.015625 -16.296875 L 15 -16.28125 L 14.28125 -15.671875 C 14.363281 -15.609375 14.441406 -15.523438 14.515625 -15.421875 C 14.585938 -15.328125 14.644531 -15.207031 14.6875 -15.0625 L 16.59375 -10.109375 C 16.894531 -9.328125 17.113281 -8.648438 17.25 -8.078125 C 17.382812 -7.503906 17.453125 -6.992188 17.453125 -6.546875 L 17.453125 -0.78125 C 17.453125 -0.59375 17.425781 -0.429688 17.375 -0.296875 C 17.332031 -0.171875 17.257812 -0.0664062 17.15625 0.015625 L 14.328125 2.375 C 14.265625 2.4375 14.171875 2.488281 14.046875 2.53125 C 13.921875 2.570312 13.785156 2.59375 13.640625 2.59375 L 10.359375 2.59375 C 9.992188 2.59375 9.722656 2.507812 9.546875 2.34375 C 9.367188 2.175781 9.28125 1.925781 9.28125 1.59375 L 9.28125 -1.25 L 8.671875 -1.25 L 8.671875 -0.78125 C 8.671875 -0.59375 8.644531 -0.429688 8.59375 -0.296875 C 8.539062 -0.171875 8.46875 -0.0664062 8.375 0.015625 Z M 5.53125 2.375 "/></g></g></g><g fill="#00bf63" fill-opacity="1"><g transform="translate(34.404782, 31.311057)"><g><path d="M 9.15625 2.59375 L 5.625 2.59375 C 5.257812 2.59375 5 2.507812 4.84375 2.34375 C 4.695312 2.1875 4.625 1.9375 4.625 1.59375 L 4.625 -1.140625 L 1.328125 -5.53125 C 0.984375 -6 0.75 -6.40625 0.625 -6.75 C 0.507812 -7.101562 0.453125 -7.632812 0.453125 -8.34375 L 0.453125 -12.53125 C 0.453125 -12.71875 0.476562 -12.875 0.53125 -13 C 0.582031 -13.132812 0.660156 -13.25 0.765625 -13.34375 L 3.578125 -15.71875 C 3.648438 -15.769531 3.742188 -15.8125 3.859375 -15.84375 C 3.984375 -15.882812 4.117188 -15.90625 4.265625 -15.90625 L 7.625 -15.90625 C 7.976562 -15.90625 8.234375 -15.828125 8.390625 -15.671875 C 8.546875 -15.515625 8.625 -15.257812 8.625 -14.90625 L 8.625 -11.328125 C 8.625 -11.203125 8.628906 -11.070312 8.640625 -10.9375 C 8.660156 -10.8125 8.707031 -10.675781 8.78125 -10.53125 L 9.046875 -10.15625 L 9.046875 -12.53125 C 9.046875 -12.71875 9.070312 -12.875 9.125 -13 C 9.175781 -13.132812 9.25 -13.25 9.34375 -13.34375 L 12.15625 -15.71875 C 12.226562 -15.769531 12.328125 -15.8125 12.453125 -15.84375 C 12.578125 -15.882812 12.710938 -15.90625 12.859375 -15.90625 L 16.109375 -15.90625 C 16.453125 -15.90625 16.703125 -15.828125 16.859375 -15.671875 C 17.023438 -15.515625 17.109375 -15.257812 17.109375 -14.90625 L 17.109375 -10.71875 C 17.109375 -10.007812 17.050781 -9.476562 16.9375 -9.125 C 16.820312 -8.78125 16.585938 -8.375 16.234375 -7.90625 L 12.96875 -3.484375 L 12.96875 -0.78125 C 12.96875 -0.59375 12.941406 -0.429688 12.890625 -0.296875 C 12.835938 -0.171875 12.757812 -0.0664062 12.65625 0.015625 L 9.828125 2.375 C 9.773438 2.4375 9.6875 2.488281 9.5625 2.53125 C 9.4375 2.570312 9.300781 2.59375 9.15625 2.59375 Z M 11.96875 0 C 12.238281 0 12.4375 -0.0625 12.5625 -0.1875 C 12.6875 -0.3125 12.75 -0.507812 12.75 -0.78125 L 12.75 -3.546875 L 16.0625 -8.046875 C 16.382812 -8.492188 16.601562 -8.882812 16.71875 -9.21875 C 16.832031 -9.550781 16.890625 -10.050781 16.890625 -10.71875 L 16.890625 -14.90625 C 16.890625 -15.1875 16.828125 -15.382812 16.703125 -15.5 C 16.578125 -15.625 16.378906 -15.6875 16.109375 -15.6875 L 12.859375 -15.6875 C 12.585938 -15.6875 12.390625 -15.625 12.265625 -15.5 C 12.140625 -15.382812 12.078125 -15.1875 12.078125 -14.90625 L 12.078125 -11.328125 C 12.078125 -11.179688 12.066406 -11.03125 12.046875 -10.875 C 12.035156 -10.71875 11.976562 -10.566406 11.875 -10.421875 L 10.875 -8.84375 C 10.800781 -8.71875 10.722656 -8.625 10.640625 -8.5625 C 10.566406 -8.507812 10.472656 -8.484375 10.359375 -8.484375 L 10.140625 -8.484375 C 10.023438 -8.484375 9.925781 -8.507812 9.84375 -8.5625 C 9.757812 -8.625 9.679688 -8.71875 9.609375 -8.84375 L 8.609375 -10.421875 C 8.503906 -10.566406 8.441406 -10.71875 8.421875 -10.875 C 8.410156 -11.03125 8.40625 -11.179688 8.40625 -11.328125 L 8.40625 -14.90625 C 8.40625 -15.1875 8.34375 -15.382812 8.21875 -15.5 C 8.101562 -15.625 7.90625 -15.6875 7.625 -15.6875 L 4.265625 -15.6875 C 3.992188 -15.6875 3.796875 -15.625 3.671875 -15.5 C 3.546875 -15.382812 3.484375 -15.1875 3.484375 -14.90625 L 3.484375 -10.71875 C 3.484375 -10.050781 3.535156 -9.550781 3.640625 -9.21875 C 3.753906 -8.882812 3.976562 -8.492188 4.3125 -8.046875 L 7.65625 -3.578125 L 7.65625 -0.78125 C 7.65625 -0.507812 7.710938 -0.3125 7.828125 -0.1875 C 7.953125 -0.0625 8.15625 0 8.4375 0 Z M 10.46875 -5.6875 L 10.3125 -5.6875 L 10.3125 -1.96875 L 10.09375 -1.96875 L 10.09375 -5.6875 L 9.875 -5.6875 C 9.550781 -5.6875 9.257812 -5.757812 9 -5.90625 C 8.75 -6.050781 8.507812 -6.285156 8.28125 -6.609375 L 6.171875 -9.546875 C 6.003906 -9.765625 5.90625 -10.019531 5.875 -10.3125 C 5.851562 -10.601562 5.84375 -10.90625 5.84375 -11.21875 L 5.84375 -13.734375 L 6.0625 -13.734375 L 6.0625 -11.21875 C 6.0625 -10.914062 6.070312 -10.628906 6.09375 -10.359375 C 6.125 -10.097656 6.210938 -9.859375 6.359375 -9.640625 L 8.484375 -6.6875 C 8.671875 -6.394531 8.882812 -6.191406 9.125 -6.078125 C 9.375 -5.960938 9.625 -5.90625 9.875 -5.90625 L 10.46875 -5.90625 C 10.738281 -5.90625 10.984375 -5.96875 11.203125 -6.09375 C 11.429688 -6.21875 11.65625 -6.414062 11.875 -6.6875 L 14.0625 -9.640625 C 14.207031 -9.828125 14.289062 -10.0625 14.3125 -10.34375 C 14.34375 -10.625 14.359375 -10.914062 14.359375 -11.21875 L 14.359375 -13.734375 L 14.578125 -13.734375 L 14.578125 -11.21875 C 14.578125 -10.90625 14.566406 -10.601562 14.546875 -10.3125 C 14.523438 -10.03125 14.425781 -9.773438 14.25 -9.546875 L 12.078125 -6.609375 C 11.847656 -6.285156 11.601562 -6.050781 11.34375 -5.90625 C 11.09375 -5.757812 10.800781 -5.6875 10.46875 -5.6875 Z M 10.46875 -5.6875 "/></g></g></g></svg>